<?xml version="1.0" encoding="utf-8"?>
<!-- Generator: Adobe Illustrator 23.0.3, SVG Export Plug-In . SVG Version: 6.00 Build 0)  -->
<svg version="1.1" id="Layer_1" xmlns="http://www.w3.org/2000/svg" xmlns:xlink="http://www.w3.org/1999/xlink" x="0px" y="0px"
	 viewBox="0 0 1618.9 443.3" style="enable-background:new 0 0 1618.9 443.3;" xml:space="preserve">
<style type="text/css">
	.st0{fill:#00A651;}
	.st1{fill:#078743;}
	.st2{fill:#0B703A;}
	.st3{fill:#27AAE1;}
	.st4{fill:#1B7FA3;}
	.st5{fill:#1C6E8C;}
</style>
<g>
	<path class="st0" d="M543.7,90.6c11.8-11.9,26.2-17.9,43.1-17.9h215.5v210.3h-48.3V120.8h-65.8v162.3h-48V120.8h-53.4
		c-3.5,0-6.4,1.3-8.9,3.8c-2.5,2.5-3.8,5.5-3.8,8.9v149.6h-48.3V133.7C525.8,116.8,531.8,102.4,543.7,90.6z"/>
</g>
<g>
	<path class="st0" d="M1044.6,120.8H879.3v33h165.3V202H879.3v21.8c0,3,1.3,5.7,3.8,8.2c2.1,2.1,5.1,3.2,9.1,3.2h152.5v47.9H892.1
		c-16.4,0-30.7-6.2-43.1-18.6c-11.8-11.8-17.7-26.4-17.7-43.9V72.7h213.4V120.8z"/>
</g>
<g>
	<path class="st0" d="M1333.2,72.7l-108.8,210.3h-35.8c-10.5,0-20.2-5.9-25.1-15.3L1062.7,72.7h54.1l81.2,156.7l81.1-156.7H1333.2z"
		/>
</g>
<g>
	<path class="st0" d="M1514.9,235L1431,72.7H1378l-108.8,210.3h54.1l26.2-50.6h88.1l-21.2-40h-46.2l34.2-66.1l81.2,156.7
		C1510.3,283.1,1526.2,256.9,1514.9,235z"/>
</g>
<g>
	<g>
		<path class="st1" d="M891.4,283c0.3,0,0.5,0,0.7,0h152.5v-47.9L891.4,283z"/>
	</g>
	<g>
		<polygon class="st1" points="891.4,120.8 1044.6,120.8 1044.6,72.7 		"/>
	</g>
	<g>
		<polygon class="st1" points="891.4,202 1044.6,202 1044.6,153.8 		"/>
	</g>
</g>
<g>
	<polygon class="st1" points="754.6,121.1 754.6,282.4 803.1,283 	"/>
</g>
<g>
	<polygon class="st1" points="640.8,131.6 640.8,282.4 688.2,283 	"/>
</g>
<g>
	<polygon class="st1" points="526.3,139.1 526.3,282.4 573.7,283 	"/>
</g>
<g>
	<path class="st1" d="M1224.4,283.1h-35.8c-10.5,0-20.2-5.9-25.1-15.3L1062.7,72.7L1224.4,283.1z"/>
</g>
<g>
	<g>
		<polygon class="st1" points="1349.7,232.5 1437.6,232.5 1416.4,192.5 		"/>
	</g>
	<g>
		<path class="st1" d="M1514.9,235L1431,72.7l54.7,210.3C1510.3,283.1,1526.2,256.9,1514.9,235z"/>
	</g>
</g>
<polygon class="st0" points="339.7,144.9 271.4,34.1 178.7,173.1 212.2,260 "/>
<polygon class="st1" points="411.7,157.6 348.9,72.6 276.3,35.3 343,143.6 "/>
<polygon class="st2" points="342.5,147.1 216.8,260.5 285.8,250.9 411.6,161.1 "/>
<polygon class="st3" points="124.8,157 28.9,215.5 160.1,229 "/>
<polygon class="st3" points="296,324.4 227.8,292.1 244.6,421.5 "/>
<polygon class="st3" points="376.7,297.5 350.7,320.2 402.8,378 "/>
<polygon class="st4" points="36.1,219.8 134.7,258.5 159.3,232.4 "/>
<polygon class="st3" points="61.6,46.6 121.8,98.9 147.3,71 "/>
<polygon class="st4" points="119.2,101.7 61.7,51.5 105,124.3 "/>
<polygon class="st5" points="148.6,73.9 122.9,102.2 107.5,125.4 134.5,96.3 "/>
<g>
	<path class="st4" d="M562.7,362.2v-30.8l-13.3,23.6h-2.9l-13.3-23.6v30.8h-5.1v-39.9h5.3l14.4,25.9l14.5-25.9h5.3v39.9H562.7z"/>
	<path class="st4" d="M585.5,362.8c-3.1,0-5.4-1-7-3.1c-1.6-2.1-2.4-5.1-2.4-9.2v-17.6h4.9v16.6c0,6,2.1,9,6.2,9
		c2,0,3.9-0.6,5.7-1.9c1.8-1.3,3.1-3.1,4-5.3v-18.4h4.9v23.2c0,1.2,0.5,1.8,1.6,1.8v4.3c-0.6,0.1-1,0.1-1.3,0.1c-0.3,0-0.6,0-0.9,0
		c-1,0-1.8-0.3-2.4-0.9c-0.7-0.6-1-1.3-1-2.2l-0.1-3.4c-1.3,2.2-3,3.9-5.2,5.1C590.4,362.2,588.1,362.8,585.5,362.8z"/>
	<path class="st4" d="M610.4,321.3h4.9v33.4c0,1.1,0.3,1.9,0.9,2.6c0.6,0.6,1.4,0.9,2.4,0.9c0.4,0,0.9-0.1,1.5-0.2
		c0.6-0.1,1.1-0.3,1.6-0.5l0.8,4c-0.8,0.3-1.8,0.6-2.9,0.8c-1.1,0.2-2.1,0.3-3,0.3c-1.9,0-3.4-0.5-4.5-1.6c-1.1-1.1-1.7-2.6-1.7-4.5
		V321.3z"/>
	<path class="st4" d="M641.5,360.8c-0.3,0.2-0.7,0.3-1.2,0.5c-0.5,0.2-1,0.4-1.7,0.6c-0.6,0.2-1.3,0.4-2,0.5
		c-0.7,0.1-1.5,0.2-2.3,0.2c-1.8,0-3.3-0.5-4.7-1.5c-1.3-1-2-2.5-2-4.6v-19.7h-4v-3.9h4v-9.8h4.9v9.8h6.6v3.9h-6.6V355
		c0.1,1.1,0.4,1.9,1.1,2.4c0.6,0.5,1.4,0.7,2.2,0.7c1,0,1.9-0.2,2.7-0.5c0.8-0.3,1.4-0.6,1.7-0.8L641.5,360.8z"/>
	<path class="st4" d="M646.1,327.4v-6.2h4.9v6.2H646.1z M646.1,362.2v-29.3h4.9v29.3H646.1z"/>
	<path class="st4" d="M667.5,362.2l-11.6-29.3h5.1l9.3,25l9.3-25h4.7l-11.6,29.3H667.5z"/>
	<path class="st4" d="M689.2,327.4v-6.2h4.9v6.2H689.2z M689.2,362.2v-29.3h4.9v29.3H689.2z"/>
	<path class="st4" d="M715.1,362.8c-2.2,0-4.2-0.4-6.1-1.2c-1.8-0.8-3.4-1.9-4.7-3.3c-1.3-1.4-2.3-3-3.1-4.9
		c-0.7-1.9-1.1-3.8-1.1-5.9c0-2.1,0.4-4,1.1-5.8s1.8-3.4,3.1-4.8c1.3-1.4,2.9-2.5,4.7-3.3s3.9-1.2,6.1-1.2c2.2,0,4.2,0.4,6,1.2
		c1.8,0.8,3.4,1.9,4.6,3.3c1.3,1.4,2.3,3,2.9,4.8c0.7,1.8,1,3.7,1,5.6c0,0.4,0,0.8,0,1.1c0,0.3,0,0.6-0.1,0.8h-24.3
		c0.1,1.5,0.4,2.8,1,4c0.6,1.2,1.3,2.2,2.2,3.1c0.9,0.9,1.9,1.5,3.1,2c1.1,0.5,2.4,0.7,3.6,0.7c0.9,0,1.8-0.1,2.6-0.4
		c0.9-0.2,1.7-0.6,2.4-1c0.7-0.4,1.4-0.9,2-1.5c0.6-0.6,1-1.3,1.3-2l4.3,1.2c-0.5,1.1-1.2,2.1-2,3c-0.8,0.9-1.8,1.7-2.9,2.3
		c-1.1,0.7-2.3,1.2-3.7,1.5C718,362.6,716.6,362.8,715.1,362.8z M725.1,345.6c-0.1-1.4-0.5-2.7-1-3.8c-0.6-1.2-1.3-2.2-2.2-3
		c-0.9-0.8-1.9-1.5-3.1-1.9c-1.2-0.5-2.4-0.7-3.7-0.7c-1.3,0-2.5,0.2-3.7,0.7c-1.2,0.5-2.2,1.1-3.1,2c-0.9,0.8-1.6,1.8-2.1,3
		c-0.5,1.2-0.9,2.4-1,3.8H725.1z"/>
	<path class="st4" d="M771.3,332.9h4.8l-12.5,29.3h-4.1l-5.9-14.3l-5.8,14.3h-4.1l-12.5-29.3h4.7l10.1,24.4l4.9-12.2l-5.1-12.2h4.1
		l3.6,9.4l3.6-9.4h4.1l-5,12.2l4.9,12.2L771.3,332.9z"/>
	<path class="st4" d="M821.1,357.8v4.5h-27.1v-39.9h26.6v4.5h-21.5v12.9h18.7v4.2h-18.7v13.8H821.1z"/>
	<path class="st4" d="M829.1,332.9l8,10.8l0.4,0.9l0.5-0.9l8-10.8h5.2l-11,14.7l11,14.6h-5.2l-8-10.7l-0.5-0.8l-0.4,0.8l-8,10.7
		h-5.2l11-14.6l-11-14.7H829.1z"/>
	<path class="st4" d="M871.2,360.8c-0.3,0.2-0.7,0.3-1.2,0.5c-0.5,0.2-1,0.4-1.7,0.6c-0.6,0.2-1.3,0.4-2,0.5
		c-0.7,0.1-1.5,0.2-2.3,0.2c-1.8,0-3.3-0.5-4.7-1.5c-1.3-1-2-2.5-2-4.6v-19.7h-4v-3.9h4v-9.8h4.9v9.8h6.6v3.9h-6.6V355
		c0.1,1.1,0.4,1.9,1.1,2.4c0.6,0.5,1.4,0.7,2.2,0.7c1,0,1.9-0.2,2.7-0.5c0.8-0.3,1.4-0.6,1.7-0.8L871.2,360.8z"/>
	<path class="st4" d="M888.4,362.8c-2.2,0-4.2-0.4-6.1-1.2c-1.8-0.8-3.4-1.9-4.7-3.3c-1.3-1.4-2.3-3-3.1-4.9
		c-0.7-1.9-1.1-3.8-1.1-5.9c0-2.1,0.4-4,1.1-5.8c0.7-1.8,1.8-3.4,3.1-4.8c1.3-1.4,2.9-2.5,4.7-3.3s3.9-1.2,6.1-1.2
		c2.2,0,4.2,0.4,6,1.2c1.8,0.8,3.4,1.9,4.6,3.3c1.3,1.4,2.3,3,2.9,4.8c0.7,1.8,1,3.7,1,5.6c0,0.4,0,0.8,0,1.1c0,0.3,0,0.6-0.1,0.8
		h-24.3c0.1,1.5,0.4,2.8,1,4c0.6,1.2,1.3,2.2,2.2,3.1c0.9,0.9,1.9,1.5,3.1,2c1.1,0.5,2.4,0.7,3.6,0.7c0.9,0,1.8-0.1,2.6-0.4
		c0.9-0.2,1.7-0.6,2.4-1c0.7-0.4,1.4-0.9,2-1.5c0.6-0.6,1-1.3,1.3-2l4.3,1.2c-0.5,1.1-1.2,2.1-2,3c-0.8,0.9-1.8,1.7-2.9,2.3
		s-2.3,1.2-3.7,1.5C891.3,362.6,889.9,362.8,888.4,362.8z M898.4,345.6c-0.1-1.4-0.5-2.7-1-3.8c-0.6-1.2-1.3-2.2-2.2-3
		c-0.9-0.8-1.9-1.5-3.1-1.9c-1.2-0.5-2.4-0.7-3.7-0.7c-1.3,0-2.5,0.2-3.7,0.7c-1.2,0.5-2.2,1.1-3.1,2c-0.9,0.8-1.6,1.8-2.1,3
		c-0.5,1.2-0.9,2.4-1,3.8H898.4z"/>
	<path class="st4" d="M934.1,362.2h-4.9v-16.4c0-3.1-0.5-5.4-1.4-6.9c-1-1.4-2.4-2.1-4.4-2.1c-1,0-2,0.2-3,0.6c-1,0.4-2,0.9-2.9,1.6
		c-0.9,0.7-1.7,1.5-2.4,2.4c-0.7,0.9-1.2,2-1.5,3.1v17.7h-4.9v-29.3h4.5v6.3c1.2-2.1,2.8-3.7,5-4.9c2.2-1.2,4.6-1.9,7.2-1.9
		c1.7,0,3.1,0.3,4.2,0.9c1.1,0.6,2,1.5,2.7,2.6c0.7,1.1,1.1,2.4,1.4,3.9c0.3,1.5,0.4,3.1,0.4,4.9V362.2z"/>
	<path class="st4" d="M953.8,362.8c-2,0-3.9-0.4-5.6-1.2c-1.7-0.8-3.2-1.9-4.4-3.3c-1.2-1.4-2.2-3-2.9-4.8c-0.7-1.8-1-3.8-1-5.8
		c0-2.1,0.3-4,1-5.9c0.7-1.9,1.6-3.5,2.8-4.9s2.6-2.5,4.2-3.3c1.6-0.8,3.4-1.2,5.4-1.2c2.4,0,4.5,0.6,6.3,1.9
		c1.9,1.2,3.3,2.7,4.4,4.5v-17.5h4.9v34.9c0,1.2,0.5,1.8,1.6,1.8v4.3c-0.5,0.1-0.9,0.1-1.3,0.2c-0.3,0-0.6,0.1-0.9,0.1
		c-1,0-1.8-0.3-2.6-1c-0.7-0.7-1.1-1.4-1.1-2.3v-2.5c-1.2,1.9-2.7,3.4-4.6,4.5C958,362.3,956,362.8,953.8,362.8z M955,358.5
		c0.9,0,1.8-0.2,2.8-0.5c1-0.3,1.9-0.8,2.7-1.4c0.8-0.6,1.6-1.3,2.2-2.1c0.6-0.8,1-1.7,1.2-2.6v-8.4c-0.3-0.9-0.8-1.8-1.5-2.7
		c-0.7-0.8-1.4-1.6-2.3-2.2c-0.8-0.6-1.7-1.1-2.7-1.5c-1-0.4-1.9-0.5-2.8-0.5c-1.5,0-2.8,0.3-4,0.9c-1.2,0.6-2.2,1.4-3,2.5
		c-0.8,1-1.5,2.2-1.9,3.5c-0.4,1.3-0.7,2.7-0.7,4.1c0,1.5,0.3,2.9,0.8,4.2c0.5,1.3,1.2,2.5,2.1,3.5c0.9,1,2,1.7,3.2,2.3
		C952.3,358.3,953.6,358.5,955,358.5z"/>
	<path class="st4" d="M990,362.8c-2.2,0-4.2-0.4-6.1-1.2c-1.8-0.8-3.4-1.9-4.7-3.3c-1.3-1.4-2.3-3-3.1-4.9c-0.7-1.9-1.1-3.8-1.1-5.9
		c0-2.1,0.4-4,1.1-5.8c0.7-1.8,1.8-3.4,3.1-4.8c1.3-1.4,2.9-2.5,4.7-3.3s3.9-1.2,6.1-1.2c2.2,0,4.2,0.4,6,1.2
		c1.8,0.8,3.4,1.9,4.6,3.3c1.3,1.4,2.3,3,2.9,4.8c0.7,1.8,1,3.7,1,5.6c0,0.4,0,0.8,0,1.1c0,0.3,0,0.6-0.1,0.8h-24.3
		c0.1,1.5,0.4,2.8,1,4c0.6,1.2,1.3,2.2,2.2,3.1c0.9,0.9,1.9,1.5,3.1,2c1.1,0.5,2.4,0.7,3.6,0.7c0.9,0,1.8-0.1,2.6-0.4s1.7-0.6,2.4-1
		c0.7-0.4,1.4-0.9,2-1.5c0.6-0.6,1-1.3,1.3-2l4.3,1.2c-0.5,1.1-1.2,2.1-2,3c-0.8,0.9-1.8,1.7-2.9,2.3c-1.1,0.7-2.3,1.2-3.7,1.5
		C992.9,362.6,991.5,362.8,990,362.8z M1000.1,345.6c-0.1-1.4-0.5-2.7-1-3.8c-0.6-1.2-1.3-2.2-2.2-3c-0.9-0.8-1.9-1.5-3.1-1.9
		c-1.2-0.5-2.4-0.7-3.7-0.7c-1.3,0-2.5,0.2-3.7,0.7c-1.2,0.5-2.2,1.1-3.1,2c-0.9,0.8-1.6,1.8-2.1,3c-0.5,1.2-0.9,2.4-1,3.8H1000.1z"
		/>
	<path class="st4" d="M1022.3,362.8c-2,0-3.9-0.4-5.6-1.2c-1.7-0.8-3.2-1.9-4.4-3.3c-1.2-1.4-2.2-3-2.9-4.8c-0.7-1.8-1-3.8-1-5.8
		c0-2.1,0.3-4,1-5.9c0.7-1.9,1.6-3.5,2.8-4.9s2.6-2.5,4.2-3.3c1.6-0.8,3.4-1.2,5.4-1.2c2.4,0,4.5,0.6,6.3,1.9
		c1.9,1.2,3.3,2.7,4.4,4.5v-17.5h4.9v34.9c0,1.2,0.5,1.8,1.6,1.8v4.3c-0.5,0.1-0.9,0.1-1.3,0.2c-0.3,0-0.6,0.1-0.9,0.1
		c-1,0-1.8-0.3-2.6-1c-0.7-0.7-1.1-1.4-1.1-2.3v-2.5c-1.2,1.9-2.7,3.4-4.6,4.5C1026.5,362.3,1024.5,362.8,1022.3,362.8z
		 M1023.5,358.5c0.9,0,1.8-0.2,2.8-0.5c1-0.3,1.9-0.8,2.7-1.4c0.8-0.6,1.6-1.3,2.2-2.1c0.6-0.8,1-1.7,1.2-2.6v-8.4
		c-0.3-0.9-0.8-1.8-1.5-2.7c-0.7-0.8-1.4-1.6-2.3-2.2c-0.8-0.6-1.7-1.1-2.7-1.5c-1-0.4-1.9-0.5-2.8-0.5c-1.5,0-2.8,0.3-4,0.9
		c-1.2,0.6-2.2,1.4-3,2.5c-0.8,1-1.5,2.2-1.9,3.5c-0.4,1.3-0.7,2.7-0.7,4.1c0,1.5,0.3,2.9,0.8,4.2c0.5,1.3,1.2,2.5,2.1,3.5
		c0.9,1,2,1.7,3.2,2.3C1020.8,358.3,1022.1,358.5,1023.5,358.5z"/>
	<path class="st4" d="M1059.8,322.4l13.2,33.5l13.1-33.5h5.3l-16.3,39.9h-4.4l-16.3-39.9H1059.8z"/>
	<path class="st4" d="M1096.1,327.4v-6.2h4.9v6.2H1096.1z M1096.1,362.2v-29.3h4.9v29.3H1096.1z"/>
	<path class="st4" d="M1121,362.8c-2,0-3.9-0.4-5.6-1.2c-1.7-0.8-3.2-1.9-4.4-3.3c-1.2-1.4-2.2-3-2.9-4.8c-0.7-1.8-1-3.8-1-5.8
		c0-2.1,0.3-4,1-5.9c0.7-1.9,1.6-3.5,2.8-4.9s2.6-2.5,4.2-3.3c1.6-0.8,3.4-1.2,5.4-1.2c2.4,0,4.5,0.6,6.3,1.9
		c1.9,1.2,3.3,2.7,4.4,4.5v-17.5h4.9v34.9c0,1.2,0.5,1.8,1.6,1.8v4.3c-0.5,0.1-0.9,0.1-1.3,0.2c-0.3,0-0.6,0.1-0.9,0.1
		c-1,0-1.8-0.3-2.6-1s-1.1-1.4-1.1-2.3v-2.5c-1.2,1.9-2.7,3.4-4.6,4.5C1125.2,362.3,1123.2,362.8,1121,362.8z M1122.2,358.5
		c0.9,0,1.8-0.2,2.8-0.5c1-0.3,1.9-0.8,2.7-1.4c0.8-0.6,1.6-1.3,2.2-2.1c0.6-0.8,1-1.7,1.2-2.6v-8.4c-0.3-0.9-0.8-1.8-1.5-2.7
		c-0.7-0.8-1.4-1.6-2.3-2.2c-0.8-0.6-1.7-1.1-2.7-1.5c-1-0.4-1.9-0.5-2.8-0.5c-1.5,0-2.8,0.3-4,0.9c-1.2,0.6-2.2,1.4-3,2.5
		c-0.8,1-1.5,2.2-1.9,3.5c-0.4,1.3-0.7,2.7-0.7,4.1c0,1.5,0.3,2.9,0.8,4.2c0.5,1.3,1.2,2.5,2.1,3.5c0.9,1,2,1.7,3.2,2.3
		C1119.5,358.3,1120.8,358.5,1122.2,358.5z"/>
	<path class="st4" d="M1157.3,362.8c-2.2,0-4.2-0.4-6.1-1.2c-1.8-0.8-3.4-1.9-4.7-3.3c-1.3-1.4-2.3-3-3.1-4.9
		c-0.7-1.9-1.1-3.8-1.1-5.9c0-2.1,0.4-4,1.1-5.8s1.8-3.4,3.1-4.8c1.3-1.4,2.9-2.5,4.7-3.3s3.9-1.2,6.1-1.2c2.2,0,4.2,0.4,6,1.2
		c1.8,0.8,3.4,1.9,4.6,3.3c1.3,1.4,2.3,3,2.9,4.8c0.7,1.8,1,3.7,1,5.6c0,0.4,0,0.8,0,1.1c0,0.3,0,0.6-0.1,0.8h-24.3
		c0.1,1.5,0.4,2.8,1,4c0.6,1.2,1.3,2.2,2.2,3.1c0.9,0.9,1.9,1.5,3.1,2c1.1,0.5,2.4,0.7,3.6,0.7c0.9,0,1.8-0.1,2.6-0.4
		c0.9-0.2,1.7-0.6,2.4-1c0.7-0.4,1.4-0.9,2-1.5c0.6-0.6,1-1.3,1.3-2l4.3,1.2c-0.5,1.1-1.2,2.1-2,3c-0.8,0.9-1.8,1.7-2.9,2.3
		c-1.1,0.7-2.3,1.2-3.7,1.5C1160.1,362.6,1158.7,362.8,1157.3,362.8z M1167.3,345.6c-0.1-1.4-0.5-2.7-1-3.8c-0.6-1.2-1.3-2.2-2.2-3
		c-0.9-0.8-1.9-1.5-3.1-1.9c-1.2-0.5-2.4-0.7-3.7-0.7c-1.3,0-2.5,0.2-3.7,0.7c-1.2,0.5-2.2,1.1-3.1,2c-0.9,0.8-1.6,1.8-2.1,3
		c-0.5,1.2-0.9,2.4-1,3.8H1167.3z"/>
	<path class="st4" d="M1190.3,362.8c-2.2,0-4.2-0.4-6-1.2c-1.8-0.8-3.4-1.9-4.7-3.3c-1.3-1.4-2.3-3-3-4.8c-0.7-1.8-1.1-3.8-1.1-5.8
		c0-2.1,0.4-4,1.1-5.8c0.7-1.8,1.7-3.4,3-4.8c1.3-1.4,2.8-2.5,4.7-3.3c1.8-0.8,3.8-1.2,6-1.2c2.2,0,4.2,0.4,6,1.2
		c1.8,0.8,3.4,1.9,4.7,3.3c1.3,1.4,2.3,3,3,4.8c0.7,1.8,1.1,3.8,1.1,5.8c0,2-0.4,4-1.1,5.8c-0.7,1.8-1.7,3.4-3,4.8
		c-1.3,1.4-2.9,2.5-4.7,3.3C1194.5,362.4,1192.5,362.8,1190.3,362.8z M1180.6,347.7c0,1.5,0.3,3,0.8,4.3c0.5,1.3,1.2,2.5,2.1,3.4
		c0.9,1,1.9,1.7,3.1,2.3c1.2,0.6,2.4,0.8,3.8,0.8s2.6-0.3,3.8-0.8c1.2-0.6,2.2-1.3,3.1-2.3c0.9-1,1.6-2.2,2.1-3.5
		c0.5-1.3,0.8-2.8,0.8-4.3c0-1.5-0.3-2.9-0.8-4.2c-0.5-1.3-1.2-2.5-2.1-3.5c-0.9-1-1.9-1.8-3.1-2.3c-1.2-0.6-2.4-0.8-3.8-0.8
		s-2.6,0.3-3.8,0.9c-1.2,0.6-2.2,1.4-3.1,2.4c-0.9,1-1.6,2.2-2.1,3.5C1180.8,344.7,1180.6,346.2,1180.6,347.7z"/>
	<path class="st4" d="M1260.5,332.9h4.8l-12.5,29.3h-4.1l-5.9-14.3l-5.8,14.3h-4.1l-12.5-29.3h4.7l10.1,24.4l4.9-12.2l-5.1-12.2h4.1
		l3.6,9.4l3.6-9.4h4.1l-5,12.2l4.9,12.2L1260.5,332.9z"/>
	<path class="st4" d="M1269.9,327.4v-6.2h4.9v6.2H1269.9z M1269.9,362.2v-29.3h4.9v29.3H1269.9z"/>
	<path class="st4" d="M1297.9,360.8c-0.3,0.2-0.7,0.3-1.2,0.5c-0.5,0.2-1,0.4-1.7,0.6c-0.6,0.2-1.3,0.4-2,0.5
		c-0.7,0.1-1.5,0.2-2.3,0.2c-1.8,0-3.3-0.5-4.7-1.5c-1.3-1-2-2.5-2-4.6v-19.7h-4v-3.9h4v-9.8h4.9v9.8h6.6v3.9h-6.6V355
		c0.1,1.1,0.4,1.9,1.1,2.4c0.6,0.5,1.4,0.7,2.2,0.7c1,0,1.9-0.2,2.7-0.5c0.8-0.3,1.4-0.6,1.7-0.8L1297.9,360.8z"/>
	<path class="st4" d="M1328,362.2h-4.9v-16.4c0-3-0.5-5.3-1.6-6.8c-1-1.5-2.6-2.2-4.6-2.2c-1,0-1.9,0.2-2.9,0.6
		c-1,0.4-1.9,0.9-2.7,1.6c-0.8,0.7-1.6,1.5-2.2,2.4c-0.7,0.9-1.2,2-1.5,3.1v17.7h-4.9v-41h4.9v18c1.2-2.1,2.7-3.8,4.7-5
		c2-1.2,4.2-1.8,6.5-1.8c1.7,0,3.2,0.3,4.4,1c1.2,0.6,2.2,1.5,2.9,2.6c0.7,1.1,1.2,2.4,1.5,3.9c0.3,1.5,0.5,3.1,0.5,4.9V362.2z"/>
	<path class="st4" d="M1361.1,322.4h4.3l16.3,39.9h-5.4l-4.7-11.7h-16.7l-4.7,11.7h-5.4L1361.1,322.4z M1370.4,346.6l-7.2-18.4
		l-7.4,18.4H1370.4z"/>
	<path class="st4" d="M1383.3,347.5c0-2.1,0.4-4,1.1-5.8c0.7-1.8,1.7-3.4,3-4.8c1.3-1.4,2.9-2.5,4.7-3.3c1.8-0.8,3.8-1.2,6.1-1.2
		c2.9,0,5.4,0.6,7.6,1.9c2.1,1.3,3.7,3,4.8,5.2l-4.8,1.5c-0.8-1.4-1.8-2.5-3.1-3.2c-1.4-0.8-2.8-1.1-4.5-1.1c-1.3,0-2.6,0.3-3.8,0.8
		c-1.2,0.5-2.2,1.3-3.1,2.3c-0.9,1-1.5,2.1-2,3.4c-0.5,1.3-0.8,2.8-0.8,4.3c0,1.5,0.3,3,0.8,4.3c0.5,1.3,1.2,2.5,2.1,3.5
		c0.9,1,1.9,1.8,3.1,2.3c1.2,0.6,2.4,0.8,3.8,0.8c0.9,0,1.7-0.1,2.6-0.4c0.8-0.2,1.6-0.6,2.3-1c0.7-0.4,1.3-0.9,1.8-1.4
		c0.5-0.5,0.9-1.1,1.1-1.8l4.8,1.5c-0.4,1.1-1.1,2.1-1.9,3c-0.8,0.9-1.8,1.7-2.8,2.3c-1.1,0.6-2.3,1.1-3.6,1.5
		c-1.3,0.4-2.7,0.6-4.2,0.6c-2.2,0-4.2-0.4-6.1-1.2c-1.8-0.8-3.4-1.9-4.7-3.3c-1.3-1.4-2.3-3-3.1-4.9
		C1383.7,351.6,1383.3,349.6,1383.3,347.5z"/>
	<path class="st4" d="M1431.5,360.8c-0.3,0.2-0.7,0.3-1.2,0.5c-0.5,0.2-1,0.4-1.7,0.6c-0.6,0.2-1.3,0.4-2,0.5
		c-0.7,0.1-1.5,0.2-2.3,0.2c-1.8,0-3.3-0.5-4.7-1.5c-1.3-1-2-2.5-2-4.6v-19.7h-4v-3.9h4v-9.8h4.9v9.8h6.6v3.9h-6.6V355
		c0.1,1.1,0.4,1.9,1.1,2.4c0.6,0.5,1.4,0.7,2.2,0.7c1,0,1.9-0.2,2.7-0.5c0.8-0.3,1.4-0.6,1.7-0.8L1431.5,360.8z"/>
	<path class="st4" d="M1436.1,327.4v-6.2h4.9v6.2H1436.1z M1436.1,362.2v-29.3h4.9v29.3H1436.1z"/>
	<path class="st4" d="M1457.5,362.2l-11.6-29.3h5.1l9.3,25l9.3-25h4.7l-11.6,29.3H1457.5z"/>
	<path class="st4" d="M1479.3,327.4v-6.2h4.9v6.2H1479.3z M1479.3,362.2v-29.3h4.9v29.3H1479.3z"/>
	<path class="st4" d="M1507.4,360.8c-0.3,0.2-0.7,0.3-1.2,0.5c-0.5,0.2-1,0.4-1.7,0.6c-0.6,0.2-1.3,0.4-2,0.5
		c-0.7,0.1-1.5,0.2-2.3,0.2c-1.8,0-3.3-0.5-4.7-1.5c-1.3-1-2-2.5-2-4.6v-19.7h-4v-3.9h4v-9.8h4.9v9.8h6.6v3.9h-6.6V355
		c0.1,1.1,0.4,1.9,1.1,2.4c0.6,0.5,1.4,0.7,2.2,0.7c1,0,1.9-0.2,2.7-0.5c0.8-0.3,1.4-0.6,1.7-0.8L1507.4,360.8z"/>
	<path class="st4" d="M1512,327.4v-6.2h4.9v6.2H1512z M1512,362.2v-29.3h4.9v29.3H1512z"/>
	<path class="st4" d="M1537.8,362.8c-2.2,0-4.2-0.4-6.1-1.2c-1.8-0.8-3.4-1.9-4.7-3.3c-1.3-1.4-2.3-3-3.1-4.9
		c-0.7-1.9-1.1-3.8-1.1-5.9c0-2.1,0.4-4,1.1-5.8c0.7-1.8,1.8-3.4,3.1-4.8c1.3-1.4,2.9-2.5,4.7-3.3s3.9-1.2,6.1-1.2
		c2.2,0,4.2,0.4,6,1.2c1.8,0.8,3.4,1.9,4.6,3.3c1.3,1.4,2.3,3,2.9,4.8c0.7,1.8,1,3.7,1,5.6c0,0.4,0,0.8,0,1.1c0,0.3,0,0.6-0.1,0.8
		h-24.3c0.1,1.5,0.4,2.8,1,4c0.6,1.2,1.3,2.2,2.2,3.1c0.9,0.9,1.9,1.5,3.1,2c1.1,0.5,2.4,0.7,3.6,0.7c0.9,0,1.8-0.1,2.6-0.4
		s1.7-0.6,2.4-1c0.7-0.4,1.4-0.9,2-1.5c0.6-0.6,1-1.3,1.3-2l4.3,1.2c-0.5,1.1-1.2,2.1-2,3c-0.8,0.9-1.8,1.7-2.9,2.3
		c-1.1,0.7-2.3,1.2-3.7,1.5C1540.7,362.6,1539.3,362.8,1537.8,362.8z M1547.9,345.6c-0.1-1.4-0.5-2.7-1-3.8c-0.6-1.2-1.3-2.2-2.2-3
		c-0.9-0.8-1.9-1.5-3.1-1.9c-1.2-0.5-2.4-0.7-3.7-0.7c-1.3,0-2.5,0.2-3.7,0.7c-1.2,0.5-2.2,1.1-3.1,2c-0.9,0.8-1.6,1.8-2.1,3
		c-0.5,1.2-0.9,2.4-1,3.8H1547.9z"/>
	<path class="st4" d="M1568.3,362.8c-2.4,0-4.7-0.4-7-1.1c-2.3-0.7-4.3-1.8-5.9-3.2l2.1-3.3c1.7,1.3,3.4,2.3,5.2,2.9
		c1.7,0.7,3.5,1,5.4,1c2.1,0,3.8-0.4,5.1-1.3c1.3-0.8,1.9-2,1.9-3.6c0-0.7-0.2-1.3-0.5-1.8c-0.3-0.5-0.8-0.9-1.5-1.3
		c-0.7-0.4-1.5-0.7-2.6-1c-1-0.3-2.3-0.6-3.7-1c-1.8-0.4-3.3-0.9-4.5-1.3c-1.3-0.4-2.3-0.9-3.1-1.5c-0.8-0.6-1.4-1.2-1.8-2
		c-0.4-0.8-0.6-1.8-0.6-2.9c0-1.5,0.3-2.8,0.9-3.9c0.6-1.1,1.4-2.1,2.4-2.9c1-0.8,2.2-1.3,3.6-1.7c1.4-0.4,2.8-0.6,4.4-0.6
		c2.2,0,4.3,0.4,6.2,1.1c1.9,0.7,3.5,1.6,4.8,2.8l-2.2,3c-1.2-1.1-2.6-1.9-4.2-2.4c-1.5-0.5-3.1-0.8-4.7-0.8c-1.8,0-3.3,0.4-4.6,1.2
		c-1.3,0.8-1.9,2-1.9,3.7c0,0.7,0.1,1.2,0.4,1.7c0.2,0.5,0.6,0.8,1.2,1.2c0.6,0.3,1.3,0.6,2.2,0.9c0.9,0.3,1.9,0.5,3.2,0.8
		c1.9,0.5,3.6,0.9,5.1,1.4c1.4,0.5,2.6,1,3.6,1.7c1,0.6,1.7,1.4,2.1,2.2c0.5,0.9,0.7,1.9,0.7,3.1c0,2.7-1,4.9-3.1,6.5
		C1574.7,362,1571.9,362.8,1568.3,362.8z"/>
</g>
<polygon class="st5" points="186.6,63.1 171,83.6 207.2,88.7 221.8,69.2 "/>
<polygon class="st5" points="383,256.7 373.8,219.5 356.3,236 362.5,270.9 "/>
<polygon class="st4" points="184,60.8 175.8,31.8 170.3,78.8 "/>
<polygon class="st3" points="219.3,65.2 178.5,28.1 187.3,59.6 "/>
<polygon class="st3" points="412,260 378.2,222.5 386.4,255.9 "/>
<polygon class="st4" points="406.6,262.7 385.4,259.3 369.5,269.9 "/>
<polygon class="st4" points="224.4,292.7 195.9,319 240.4,415.9 "/>
<g>
	<polygon class="st4" points="399.4,379.4 347.6,322.1 320.5,338.9 	"/>
	<polygon class="st4" points="318.8,340 318.8,340 318.8,340 	"/>
</g>
<polygon class="st5" points="347.1,318.9 373.7,296.1 343.9,314.1 319.3,336 "/>
</svg>
